<svg width="19" height="19" viewBox="0 0 19 19" fill="none" xmlns="http://www.w3.org/2000/svg">
<path fill-rule="evenodd" clip-rule="evenodd" d="M9.19263 1.58333C4.99022 1.58333 1.5835 4.91481 1.5835 9.02441C1.5835 13.134 4.99022 16.4655 9.19263 16.4655C10.99 16.4655 12.6418 15.8561 13.9438 14.837L16.417 17.2493L16.4828 17.3047C16.7124 17.4709 17.038 17.452 17.2457 17.2483C17.4743 17.0242 17.4738 16.6614 17.2447 16.4379L14.8005 14.0539C16.0432 12.7295 16.8018 10.9636 16.8018 9.02441C16.8018 4.91481 13.395 1.58333 9.19263 1.58333ZM9.19263 2.72945C12.7478 2.72945 15.6298 5.5478 15.6298 9.02441C15.6298 12.501 12.7478 15.3194 9.19263 15.3194C5.63751 15.3194 2.75551 12.501 2.75551 9.02441C2.75551 5.5478 5.63751 2.72945 9.19263 2.72945Z" fill="#65656B"/>
</svg>
